<svg xmlns="http://www.w3.org/2000/svg" viewBox="0 0 390 844" width="390" height="844">
  <defs>
    <style>
      .display { font-family: 'Space Grotesk', sans-serif; font-weight: 700; }
      .body { font-family: 'Inter', sans-serif; font-weight: 400; }
      .body-bold { font-family: 'Inter', sans-serif; font-weight: 700; }
      .mono { font-family: 'JetBrains Mono', monospace; font-weight: 400; }
    </style>
  </defs>

  <!-- iPhone Portrait layout (iPhonePortrait LayoutMode) -->
  <!-- width < 430pt | 1 zone visible | carousel mode | drawer for params -->

  <!-- ============================================ -->
  <!-- STATUS BAR (simulated iOS)                   -->
  <!-- ============================================ -->
  <g id="StatusBar">
    <rect width="390" height="54" fill="#F8F6F3"/>
    <text x="195" y="18" class="mono" font-size="11" fill="#1A1A1A" text-anchor="middle">9:41</text>
    <!-- Dynamic Island hint -->
    <rect x="155" y="6" width="80" height="26" rx="13" fill="#1A1A1A" opacity="0.08"/>
  </g>

  <!-- ============================================ -->
  <!-- HEADER (44px)                                -->
  <!-- ============================================ -->
  <g id="Header">
    <rect x="0" y="54" width="390" height="44" fill="#F8F6F3"/>
    <text x="16" y="78" class="display" font-size="14" fill="#1A1A1A">XO_OX</text>
    <text x="72" y="78" class="body" font-size="9" fill="#777570">XOmnibus</text>

    <!-- Engine selector (scrollable pills) -->
    <g id="EnginePills">
      <rect x="160" y="62" width="60" height="26" rx="13" fill="#00A6D6" opacity="0.15" stroke="#00A6D6" stroke-width="1.5"/>
      <text x="190" y="79" class="body-bold" font-size="8" fill="#00A6D6" text-anchor="middle">ODDFELIX</text>

      <rect x="224" y="62" width="56" height="26" rx="13" fill="#F8F6F3" stroke="#DDDAD5" stroke-width="1"/>
      <text x="252" y="79" class="body-bold" font-size="8" fill="#7B2D8B" text-anchor="middle">ODYSSEY</text>

      <rect x="284" y="62" width="30" height="26" rx="13" fill="#EAE8E4" stroke="#DDDAD5" stroke-width="1"/>
      <text x="299" y="79" class="body" font-size="11" fill="#777570" text-anchor="middle">+</text>
    </g>

    <!-- Preset mini-display -->
    <g id="PresetMini">
      <rect x="320" y="62" width="60" height="26" rx="6" fill="#FCFBF9" stroke="#DDDAD5" stroke-width="1"/>
      <text x="350" y="73" class="body" font-size="6" fill="#777570" text-anchor="middle">PRESET</text>
      <text x="350" y="83" class="body-bold" font-size="7" fill="#1A1A1A" text-anchor="middle">Velvet H.</text>
    </g>

    <line x1="0" y1="98" x2="390" y2="98" stroke="#DDDAD5" stroke-width="1"/>
  </g>

  <!-- ============================================ -->
  <!-- PLAY SURFACE — Single zone (carousel mode)   -->
  <!-- ============================================ -->
  <g id="PlaySurface">
    <rect x="0" y="98" width="390" height="380" fill="#FCFBF9"/>

    <!-- Zone indicator dots (carousel) -->
    <g id="CarouselDots">
      <circle cx="177" y="112" r="4" fill="#00A6D6"/>
      <circle cx="189" y="112" r="3" fill="#DDDAD5"/>
      <circle cx="201" y="112" r="3" fill="#DDDAD5"/>
      <circle cx="213" y="112" r="3" fill="#DDDAD5"/>
    </g>

    <text x="16" y="110" class="body-bold" font-size="8" fill="#00A6D6">ZONE 1 — PAD</text>
    <text x="340" y="110" class="body" font-size="7" fill="#777570">swipe →</text>

    <!-- Pad grid (4x5, touch-optimized 60pt min) -->
    <g id="PadGrid" transform="translate(12, 120)">
      <!-- Row 1 -->
      <rect x="0" y="0" width="88" height="64" rx="8" fill="#00A6D6" opacity="0.12" stroke="#00A6D6" stroke-width="0.5"/>
      <text x="44" y="36" class="body" font-size="8" fill="#00A6D6" text-anchor="middle">C3</text>
      <rect x="92" y="0" width="88" height="64" rx="8" fill="#00A6D6" opacity="0.08" stroke="#DDDAD5" stroke-width="0.5"/>
      <text x="136" y="36" class="body" font-size="8" fill="#777570" text-anchor="middle">D3</text>
      <rect x="184" y="0" width="88" height="64" rx="8" fill="#00A6D6" opacity="0.08" stroke="#DDDAD5" stroke-width="0.5"/>
      <text x="228" y="36" class="body" font-size="8" fill="#777570" text-anchor="middle">E3</text>
      <rect x="276" y="0" width="88" height="64" rx="8" fill="#00A6D6" opacity="0.08" stroke="#DDDAD5" stroke-width="0.5"/>
      <text x="320" y="36" class="body" font-size="8" fill="#777570" text-anchor="middle">F3</text>

      <!-- Row 2 -->
      <rect x="0" y="68" width="88" height="64" rx="8" fill="#00A6D6" opacity="0.08" stroke="#DDDAD5" stroke-width="0.5"/>
      <text x="44" y="104" class="body" font-size="8" fill="#777570" text-anchor="middle">G3</text>
      <rect x="92" y="68" width="88" height="64" rx="8" fill="#00A6D6" opacity="0.15" stroke="#00A6D6" stroke-width="1"/>
      <text x="136" y="104" class="body" font-size="8" fill="#00A6D6" text-anchor="middle">A3</text>
      <rect x="184" y="68" width="88" height="64" rx="8" fill="#00A6D6" opacity="0.08" stroke="#DDDAD5" stroke-width="0.5"/>
      <text x="228" y="104" class="body" font-size="8" fill="#777570" text-anchor="middle">B3</text>
      <rect x="276" y="68" width="88" height="64" rx="8" fill="#00A6D6" opacity="0.08" stroke="#DDDAD5" stroke-width="0.5"/>
      <text x="320" y="104" class="body" font-size="8" fill="#777570" text-anchor="middle">C4</text>

      <!-- Row 3 -->
      <rect x="0" y="136" width="88" height="64" rx="8" fill="#00A6D6" opacity="0.08" stroke="#DDDAD5" stroke-width="0.5"/>
      <rect x="92" y="136" width="88" height="64" rx="8" fill="#00A6D6" opacity="0.08" stroke="#DDDAD5" stroke-width="0.5"/>
      <rect x="184" y="136" width="88" height="64" rx="8" fill="#00A6D6" opacity="0.08" stroke="#DDDAD5" stroke-width="0.5"/>
      <rect x="276" y="136" width="88" height="64" rx="8" fill="#00A6D6" opacity="0.08" stroke="#DDDAD5" stroke-width="0.5"/>

      <!-- Row 4 -->
      <rect x="0" y="204" width="88" height="64" rx="8" fill="#00A6D6" opacity="0.08" stroke="#DDDAD5" stroke-width="0.5"/>
      <rect x="92" y="204" width="88" height="64" rx="8" fill="#00A6D6" opacity="0.08" stroke="#DDDAD5" stroke-width="0.5"/>
      <rect x="184" y="204" width="88" height="64" rx="8" fill="#00A6D6" opacity="0.08" stroke="#DDDAD5" stroke-width="0.5"/>
      <rect x="276" y="204" width="88" height="64" rx="8" fill="#00A6D6" opacity="0.08" stroke="#DDDAD5" stroke-width="0.5"/>
    </g>
  </g>

  <!-- ============================================ -->
  <!-- MACRO KNOBS (compact, 24pt)                  -->
  <!-- ============================================ -->
  <g id="MacroBar">
    <rect x="0" y="478" width="390" height="56" fill="#F8F6F3"/>
    <line x1="0" y1="478" x2="390" y2="478" stroke="#DDDAD5" stroke-width="1"/>

    <g transform="translate(24, 486)">
      <circle cx="16" cy="16" r="14" fill="none" stroke="#E9C46A" stroke-width="2"/>
      <path d="M16 4 A12 12 0 1 1 6 26" fill="none" stroke="#E9C46A" stroke-width="2.5" stroke-linecap="round"/>
      <circle cx="16" cy="16" r="2.5" fill="#E9C46A"/>
      <text x="16" y="38" class="body" font-size="6" fill="#9E7C2E" text-anchor="middle">CHAR</text>
    </g>

    <g transform="translate(104, 486)">
      <circle cx="16" cy="16" r="14" fill="none" stroke="#E9C46A" stroke-width="2"/>
      <path d="M16 4 A12 12 0 0 1 26 22" fill="none" stroke="#E9C46A" stroke-width="2.5" stroke-linecap="round"/>
      <circle cx="16" cy="16" r="2.5" fill="#E9C46A"/>
      <text x="16" y="38" class="body" font-size="6" fill="#9E7C2E" text-anchor="middle">MOVE</text>
    </g>

    <g transform="translate(184, 486)">
      <circle cx="16" cy="16" r="14" fill="none" stroke="#E9C46A" stroke-width="2"/>
      <path d="M16 4 A12 12 0 0 1 22 6" fill="none" stroke="#E9C46A" stroke-width="2.5" stroke-linecap="round"/>
      <circle cx="16" cy="16" r="2.5" fill="#E9C46A"/>
      <text x="16" y="38" class="body" font-size="6" fill="#9E7C2E" text-anchor="middle">COUP</text>
    </g>

    <g transform="translate(264, 486)">
      <circle cx="16" cy="16" r="14" fill="none" stroke="#E9C46A" stroke-width="2"/>
      <path d="M16 4 A12 12 0 0 1 28 18" fill="none" stroke="#E9C46A" stroke-width="2.5" stroke-linecap="round"/>
      <circle cx="16" cy="16" r="2.5" fill="#E9C46A"/>
      <text x="16" y="38" class="body" font-size="6" fill="#9E7C2E" text-anchor="middle">SPACE</text>
    </g>

    <!-- Master mini -->
    <g transform="translate(340, 486)">
      <circle cx="14" cy="16" r="12" fill="none" stroke="#1A1A1A" stroke-width="1.5"/>
      <path d="M14 6 A10 10 0 1 1 6 24" fill="none" stroke="#1A1A1A" stroke-width="2" stroke-linecap="round"/>
      <circle cx="14" cy="16" r="2" fill="#1A1A1A"/>
      <text x="14" y="38" class="body" font-size="6" fill="#1A1A1A" text-anchor="middle">VOL</text>
    </g>
  </g>

  <!-- ============================================ -->
  <!-- PARAMETER DRAWER (peek state: 100px)         -->
  <!-- ============================================ -->
  <g id="ParameterDrawer">
    <rect x="0" y="534" width="390" height="276" rx="16 16 0 0" fill="#FCFBF9" stroke="#DDDAD5" stroke-width="1"/>

    <!-- Drawer handle -->
    <rect x="170" y="540" width="50" height="4" rx="2" fill="#DDDAD5"/>

    <!-- Drawer header -->
    <text x="16" y="562" class="body-bold" font-size="10" fill="#00A6D6">ODDFELIX PARAMETERS</text>
    <text x="340" y="562" class="body" font-size="8" fill="#777570">drag up</text>

    <!-- Visible knobs (peek: first row) -->
    <g id="DrawerKnobs">
      <g transform="translate(16, 574)">
        <circle cx="24" cy="24" r="20" fill="none" stroke="#DDDAD5" stroke-width="2"/>
        <path d="M24 6 A18 18 0 1 1 8 38" fill="none" stroke="#00A6D6" stroke-width="2.5" stroke-linecap="round"/>
        <circle cx="24" cy="24" r="3" fill="#00A6D6"/>
        <text x="24" y="54" class="body" font-size="7" fill="#777570" text-anchor="middle">CUTOFF</text>
        <text x="24" y="64" class="mono" font-size="8" fill="#1A1A1A" text-anchor="middle">2.4k</text>
      </g>

      <g transform="translate(82, 574)">
        <circle cx="24" cy="24" r="20" fill="none" stroke="#DDDAD5" stroke-width="2"/>
        <path d="M24 6 A18 18 0 0 1 40 30" fill="none" stroke="#00A6D6" stroke-width="2.5" stroke-linecap="round"/>
        <circle cx="24" cy="24" r="3" fill="#00A6D6"/>
        <text x="24" y="54" class="body" font-size="7" fill="#777570" text-anchor="middle">RES</text>
        <text x="24" y="64" class="mono" font-size="8" fill="#1A1A1A" text-anchor="middle">0.42</text>
      </g>

      <g transform="translate(148, 574)">
        <circle cx="24" cy="24" r="20" fill="none" stroke="#DDDAD5" stroke-width="2"/>
        <path d="M24 6 A18 18 0 1 1 6 24" fill="none" stroke="#00A6D6" stroke-width="2.5" stroke-linecap="round"/>
        <circle cx="24" cy="24" r="3" fill="#00A6D6"/>
        <text x="24" y="54" class="body" font-size="7" fill="#777570" text-anchor="middle">WAVE</text>
        <text x="24" y="64" class="mono" font-size="8" fill="#1A1A1A" text-anchor="middle">0.78</text>
      </g>

      <g transform="translate(214, 574)">
        <circle cx="24" cy="24" r="20" fill="none" stroke="#DDDAD5" stroke-width="2"/>
        <path d="M24 6 A18 18 0 0 1 42 24" fill="none" stroke="#00A6D6" stroke-width="2.5" stroke-linecap="round"/>
        <circle cx="24" cy="24" r="3" fill="#00A6D6"/>
        <text x="24" y="54" class="body" font-size="7" fill="#777570" text-anchor="middle">FM</text>
        <text x="24" y="64" class="mono" font-size="8" fill="#1A1A1A" text-anchor="middle">0.30</text>
      </g>

      <g transform="translate(280, 574)">
        <circle cx="24" cy="24" r="20" fill="none" stroke="#DDDAD5" stroke-width="2"/>
        <path d="M24 6 A18 18 0 0 1 36 10" fill="none" stroke="#00A6D6" stroke-width="2.5" stroke-linecap="round"/>
        <circle cx="24" cy="24" r="3" fill="#00A6D6"/>
        <text x="24" y="54" class="body" font-size="7" fill="#777570" text-anchor="middle">ATK</text>
        <text x="24" y="64" class="mono" font-size="8" fill="#1A1A1A" text-anchor="middle">12ms</text>
      </g>

      <g transform="translate(346, 574)">
        <circle cx="24" cy="24" r="20" fill="none" stroke="#DDDAD5" stroke-width="2"/>
        <path d="M24 6 A18 18 0 0 1 38 14" fill="none" stroke="#00A6D6" stroke-width="2.5" stroke-linecap="round"/>
        <circle cx="24" cy="24" r="3" fill="#00A6D6"/>
        <text x="24" y="54" class="body" font-size="7" fill="#777570" text-anchor="middle">REL</text>
        <text x="24" y="64" class="mono" font-size="8" fill="#1A1A1A" text-anchor="middle">480</text>
      </g>
    </g>

    <!-- More rows hint (faded) -->
    <g opacity="0.3">
      <g transform="translate(16, 650)">
        <circle cx="24" cy="24" r="20" fill="none" stroke="#DDDAD5" stroke-width="2"/>
        <text x="24" y="54" class="body" font-size="7" fill="#777570" text-anchor="middle">LFO RT</text>
      </g>
      <g transform="translate(82, 650)">
        <circle cx="24" cy="24" r="20" fill="none" stroke="#DDDAD5" stroke-width="2"/>
        <text x="24" y="54" class="body" font-size="7" fill="#777570" text-anchor="middle">LFO DP</text>
      </g>
      <g transform="translate(148, 650)">
        <circle cx="24" cy="24" r="20" fill="none" stroke="#DDDAD5" stroke-width="2"/>
        <text x="24" y="54" class="body" font-size="7" fill="#777570" text-anchor="middle">DETUNE</text>
      </g>
      <g transform="translate(214, 650)">
        <circle cx="24" cy="24" r="20" fill="none" stroke="#DDDAD5" stroke-width="2"/>
        <text x="24" y="54" class="body" font-size="7" fill="#777570" text-anchor="middle">SPREAD</text>
      </g>
    </g>
  </g>

  <!-- ============================================ -->
  <!-- HOME INDICATOR                               -->
  <!-- ============================================ -->
  <g id="HomeIndicator">
    <rect x="130" y="830" width="130" height="5" rx="2.5" fill="#1A1A1A" opacity="0.2"/>
  </g>
</svg>